<?xml version="1.0" encoding="utf-8"?>
<!-- Generator: Adobe Illustrator 20.1.0, SVG Export Plug-In . SVG Version: 6.00 Build 0)  -->
<svg version="1.1" id="Layer_1" xmlns="http://www.w3.org/2000/svg" xmlns:xlink="http://www.w3.org/1999/xlink" x="0px" y="0px"
	 viewBox="0 0 1033.6 772.5" style="enable-background:new 0 0 1033.6 772.5;" xml:space="preserve">
<g>
	<g>
		<path d="M4.3,427.7l105.7-102c64.6-62.2,122.6-123.2,122.6-197.4c0-68.2-31.4-111.1-106.9-111.1c-40.5,0-70,10.3-100.8,25.4v-6.6
			C55,20.1,86.4,10.5,125.6,10.5c78.5,0,114.7,44.7,114.7,117.7c0,77.9-62.2,141.3-126.8,202.9l-100.2,96v0.6h229.4l3.6-61.6h6
			l-3,68.2H4.3V427.7z"/>
		<path d="M290.4,224.8c0-134,54.3-214.3,154.6-214.3s154.6,79.7,154.6,214.3c0,134.6-54.3,214.9-154.6,214.9
			S290.4,359.5,290.4,224.8z M591.1,224.8c0-131-50.1-207.7-146.1-207.7S298.8,93.8,298.8,224.8c0,130.4,50.1,208.3,146.1,208.3
			S591.1,355.8,591.1,224.8z"/>
		<path d="M624.7,428.3l68.2-0.6V20.1l-80.3,27.2v-5.4L696,11.7h4.8v416l68.8,0.6v6H624.7V428.3z"/>
		<path d="M1019.7,23.2v-0.6H776.4l-3.6,58h-6l3-64.6h257.8v6.6L843.4,434.3H835L1019.7,23.2z"/>
	</g>
</g>
</svg>
