<?xml version="1.0" encoding="utf-8"?>
<!-- Generator: Adobe Illustrator 20.1.0, SVG Export Plug-In . SVG Version: 6.00 Build 0)  -->
<svg version="1.1" id="Layer_1" xmlns="http://www.w3.org/2000/svg" xmlns:xlink="http://www.w3.org/1999/xlink" x="0px" y="0px"
	 viewBox="0 0 1033.6 772.5" style="enable-background:new 0 0 1033.6 772.5;" xml:space="preserve">
<g>
	<path d="M10,582.5l101.9-98.4C174.1,424.2,230,365.4,230,293.8c0-65.8-30.3-107.1-103-107.1c-39,0-67.5,9.9-97.2,24.4v-6.4
		c29.1-15.1,59.4-24.4,97.2-24.4c75.7,0,110.6,43.1,110.6,113.5c0,75.1-59.9,136.2-122.2,195.6l-96.6,92.5v0.6h221.2l3.5-59.4h5.8
		l-2.9,65.8H10V582.5z"/>
	<path d="M289.3,386.9c0-129.2,52.4-206.6,149-206.6c96.6,0,149,76.8,149,206.6s-52.4,207.2-149,207.2
		C341.6,594.1,289.3,516.7,289.3,386.9z M579.1,386.9c0-126.3-48.3-200.2-140.8-200.2c-92.5,0-140.8,73.9-140.8,200.2
		c0,125.7,48.3,200.8,140.8,200.8C530.8,587.7,579.1,513.2,579.1,386.9z"/>
	<path d="M613.3,583.1l65.8-0.6V189.6l-77.4,26.2v-5.2l80.3-29.1h4.7v401l66.3,0.6v5.8H613.3V583.1z"/>
	<path d="M994.1,192.6V192H759.5l-3.5,55.9h-5.8l2.9-62.3h248.5v6.4L824.1,588.9H816L994.1,192.6z"/>
</g>
</svg>
