 <svg viewBox="0 0 1033.627 772.5" >
    <g id="Group" transform="translate(90.000000, 204.000000)">
       
        <g>
        <path fill="#FFFFFF" d="M13.3,747.1l184.8-178.5c113-108.8,214.4-215.4,214.4-345.3C412.5,104,357.6,29,225.6,29
            c-70.8,0-122.5,18-176.4,44.4V61.7C102,34.3,157,17.4,225.6,17.4c137.3,0,200.6,78.1,200.6,205.9c0,136.2-108.8,247.1-221.8,354.8
            L29.2,746v1.1h401.3l6.3-107.7h10.6l-5.3,119.3H13.3V747.1z"/>
        <path fill="#FFFFFF" d="M524.4,727v-11.6c54.9,26.4,108.8,41.2,183.7,41.2c163.7,0,226-95,226-213.3c0-152.1-78.1-211.2-230.2-211.2
            c-54.9,0-108.8,12.7-140.4,23.2L591,26.9h344.3l-1.1,11.6H601.5l-24.3,302c24.3-9.5,82.4-20.1,128.8-20.1
            c155.2,0,241.8,63.4,241.8,222.8c0,125.7-68.6,224.9-239.7,224.9C629,768.2,575.1,753.4,524.4,727z"/>
</g>
    </g>
</svg>  